# xmcd
#
# Track frame offsets:
# 150
# 16892
# 30956
# 47214
# 61358
# 78229
# 95051
# 110950
# 126240
# 143121
# 156502
# 170970
# 187524
# 201682
# 218232
# 236294
# 254116
# 268490
# 283484
# 297405
# 313645
# 329123
#
# Disc length: 4577 seconds
#
#
# Revision: 0
# Processed by: cddbd v1.5.1PL0 Copyright (c) Steve Scherf et al.
# Submitted via: FreeRIP 2.942 
#
DISCID=6b11df16
DTITLE=BOBBY Pulido - BOBBY Pulido
DYEAR=1999
DGENRE=Salsa
TTITLE0=Desvelado
TTITLE1=La rosa
TTITLE2=Le pedire
TTITLE3=Se murio de amo
TTITLE4=Que mas te puedo dar
TTITLE5=Amor sin rodeo
TTITLE6=El Cazador
TTITLE7=Que Hago conmigo
TTITLE8=Somos dos
TTITLE9=Olvidate de mi
TTITLE10=Quisiera decir
TTITLE11=Zona de peligro
TTITLE12=Dime que debo hacer
TTITLE13=Soy yo
TTITLE14=Mi amor sin ti
TTITLE15=Siempre pensando en ti
TTITLE16=Estoy solo
TTITLE17=Perdido
TTITLE18=Permaneces en mi
TTITLE19=Llegaste a mi vida
TTITLE20=Un golpe de suerte
TTITLE21=Enseñame
EXTD=
EXTT0=
EXTT1=
EXTT2=
EXTT3=
EXTT4=
EXTT5=
EXTT6=
EXTT7=
EXTT8=
EXTT9=
EXTT10=
EXTT11=
EXTT12=
EXTT13=
EXTT14=
EXTT15=
EXTT16=
EXTT17=
EXTT18=
EXTT19=
EXTT20=
EXTT21=
PLAYORDER=
